<svg width="29" height="29" viewBox="0 0 29 29" fill="none" xmlns="http://www.w3.org/2000/svg">
<path opacity="0.5" d="M8.09527 14.9523C7.83228 14.9523 7.61908 14.7391 7.61908 14.4761V13.5238C7.61908 13.2608 7.83228 13.0476 8.09527 13.0476H20C20.526 13.0476 20.9524 13.474 20.9524 14V14C20.9524 14.5259 20.526 14.9523 20 14.9523H8.09527Z" fill="#FF5100"/>
<path d="M13.6123 19.0408C13.2404 19.4127 13.2404 20.0158 13.6123 20.3877C13.9842 20.7596 14.5872 20.7596 14.9592 20.3877L20.6734 14.6734C21.034 14.3128 21.0466 13.7323 20.7021 13.3564L15.464 7.64213C15.1085 7.25439 14.5061 7.2282 14.1184 7.58362C13.7306 7.93904 13.7044 8.54149 14.0599 8.92922L18.6818 13.9713L13.6123 19.0408Z" fill="#FF5100"/>
</svg>
