<svg width="40" height="40" viewBox="0 0 40 40" fill="none" xmlns="http://www.w3.org/2000/svg">
<path opacity="0.5" d="M11.3334 21.3333C10.9652 21.3333 10.6667 21.0348 10.6667 20.6666V19.3333C10.6667 18.9651 10.9652 18.6666 11.3334 18.6666H28C28.7364 18.6666 29.3334 19.2636 29.3334 20V20C29.3334 20.7364 28.7364 21.3333 28 21.3333H11.3334Z" fill="white"/>
<path d="M19.0572 27.0572C18.5365 27.5779 18.5365 28.4221 19.0572 28.9428C19.5779 29.4635 20.4221 29.4635 20.9428 28.9428L28.9428 20.9428C29.4476 20.438 29.4652 19.6252 28.9829 19.099L21.6495 11.099C21.1519 10.5562 20.3085 10.5195 19.7657 11.0171C19.2229 11.5147 19.1862 12.3581 19.6838 12.9009L26.1545 19.9599L19.0572 27.0572Z" fill="white"/>
</svg>
