<svg width="40" height="40" viewBox="0 0 40 40" fill="none" xmlns="http://www.w3.org/2000/svg">
<path opacity="0.3" fill-rule="evenodd" clip-rule="evenodd" d="M13.3333 4.16669C12.1827 4.16669 11.25 5.09943 11.25 6.25002V33.75C11.25 34.9006 12.1827 35.8334 13.3333 35.8334H26.6667C27.8173 35.8334 28.75 34.9006 28.75 33.75V6.25002C28.75 5.09943 27.8173 4.16669 26.6667 4.16669H13.3333Z" fill="white"/>
<path fill-rule="evenodd" clip-rule="evenodd" d="M13.3333 1.66669H26.6667C29.198 1.66669 31.25 3.71872 31.25 6.25002V33.75C31.25 36.2813 29.198 38.3334 26.6667 38.3334H13.3333C10.802 38.3334 8.75 36.2813 8.75 33.75V6.25002C8.75 3.71872 10.802 1.66669 13.3333 1.66669ZM13.3333 4.1667C12.1827 4.1667 11.25 5.09944 11.25 6.25003V33.75C11.25 34.9006 12.1827 35.8334 13.3333 35.8334H26.6667C27.8173 35.8334 28.75 34.9006 28.75 33.75V6.25003C28.75 5.09944 27.8173 4.1667 26.6667 4.1667H25V3.33336C25 3.10325 24.8135 2.9167 24.5833 2.9167H15.4167C15.1865 2.9167 15 3.10325 15 3.33336V4.1667H13.3333ZM15 4.1667V5.83336C15 6.06348 15.1865 6.25003 15.4167 6.25003H24.5833C24.8135 6.25003 25 6.06348 25 5.83336V4.1667H15Z" fill="white"/>
</svg>
