<svg width="38" height="38" viewBox="0 0 38 38" fill="none" xmlns="http://www.w3.org/2000/svg">
<path d="M30.8532 15.4266V19.2832C30.8532 20.5612 29.8172 21.5972 28.5392 21.5972H8.48464C7.20666 21.5972 6.17065 20.5612 6.17065 19.2832V7.71331C6.17065 6.00933 7.552 4.62799 9.25597 4.62799H13.8839" stroke="#282828" stroke-width="1.85119" stroke-linecap="round" stroke-linejoin="round"/>
<path fill-rule="evenodd" clip-rule="evenodd" d="M29.3091 32.3958H7.71474C6.74676 32.3958 5.8349 31.9415 5.25196 31.1687C4.66903 30.3959 4.48262 29.3944 4.74851 28.4636L6.39037 22.7162C6.57957 22.0538 7.18493 21.5972 7.87373 21.5972H29.1501C29.8389 21.5972 30.4442 22.0539 30.6334 22.7162L32.2753 28.4636C32.5412 29.3944 32.3548 30.3959 31.7718 31.1687C31.1889 31.9415 30.2771 32.3958 29.3091 32.3958Z" stroke="#282828" stroke-width="1.85119" stroke-linecap="round" stroke-linejoin="round"/>
<path d="M15.4266 27.7678H21.5973" stroke="#FF5100" stroke-width="1.85119" stroke-linecap="round" stroke-linejoin="round"/>
<path d="M23.1399 10.7986L20.0546 7.71331L23.1399 4.62799" stroke="#FF5100" stroke-width="1.85119" stroke-linecap="round" stroke-linejoin="round"/>
<path d="M27.7679 4.62799L30.8532 7.71331L27.7679 10.7986" stroke="#FF5100" stroke-width="1.85119" stroke-linecap="round" stroke-linejoin="round"/>
</svg>
