<svg width="38" height="38" viewBox="0 0 38 38" fill="none" xmlns="http://www.w3.org/2000/svg">
<path fill-rule="evenodd" clip-rule="evenodd" d="M23.7184 24.6826H7.13481C5.7495 24.6826 4.62799 23.561 4.62799 22.1757V7.13481C4.62799 5.7495 5.7495 4.62799 7.13481 4.62799H23.7184C25.1037 4.62799 26.2252 5.7495 26.2252 7.13481V22.1757C26.2252 23.561 25.1037 24.6826 23.7184 24.6826Z" stroke="#282828" stroke-width="1.85119" stroke-linecap="round" stroke-linejoin="round"/>
<path d="M16.9692 18.5119H20.0546" stroke="#FF5100" stroke-width="1.85119" stroke-linecap="round" stroke-linejoin="round"/>
<path d="M10.7986 10.7986L13.884 13.884L10.7986 16.9693" stroke="#FF5100" stroke-width="1.85119" stroke-linecap="round" stroke-linejoin="round"/>
<path d="M26.2252 12.3412H29.889C31.2743 12.3412 32.3959 13.4628 32.3959 14.8481V29.889C32.3959 31.2743 31.2743 32.3958 29.889 32.3958H11.7628C10.3775 32.3958 9.25598 31.2743 9.25598 29.889V24.6825" stroke="#282828" stroke-width="1.85119" stroke-linecap="round" stroke-linejoin="round"/>
</svg>
